<?xml version="1.0" ?><!DOCTYPE svg  PUBLIC '-//W3C//DTD SVG 1.1//EN'  'http://www.w3.org/Graphics/SVG/1.1/DTD/svg11.dtd'><svg height="8.26772in" style="shape-rendering:geometricPrecision; text-rendering:geometricPrecision; image-rendering:optimizeQuality; fill-rule:evenodd; clip-rule:evenodd" version="1.1" viewBox="0 0 826772 826772" width="8.26772in" xml:space="preserve" xmlns="http://www.w3.org/2000/svg" xmlns:xlink="http://www.w3.org/1999/xlink"><defs><style type="text/css">
   <![CDATA[
    .fil0 {fill:#DD4B39}
    .fil2 {fill:#2E373C;fill-rule:nonzero}
    .fil1 {fill:white;fill-rule:nonzero}
   ]]>
  </style></defs><g id="Layer_x0020_1"><polygon class="fil0" points="0,0 826772,0 826772,826772 0,826772 "/><g id="_2016201957344"><path class="fil1" d="M553996 504600l22759 0c6109,0 11035,-4945 11035,-11054l0 -80019 79860 0c6074,0 11035,-4980 11035,-11088l0 -22777c0,-6109 -4961,-11088 -11035,-11088l-79860 0 0 -80020c0,-6072 -4926,-11051 -11035,-11051l-22759 0c-6111,0 -11072,4979 -11072,11051l0 80020 -79859 0c-6075,0 -11035,4979 -11035,11088l0 22777c0,6108 4960,11088 11035,11088l79859 0 0 80019c19,6109 4980,11054 11072,11054z"/><path class="fil1" d="M239393 643980c20199,5155 41934,7769 64480,7769 20271,0 39586,-2668 57455,-7841 55689,-16171 91690,-57240 91690,-104683 0,-45501 -14585,-72728 -53764,-100501 -16791,-11920 -32083,-29364 -32346,-34766 0,-9783 864,-14444 22759,-31553 28303,-22176 43893,-51381 43893,-82225 0,-27950 -8511,-52794 -23077,-70238l11284 0c2347,0 4624,-723 6479,-2065l31412 -22796c3901,-2806 5543,-7803 4042,-12376 -1465,-4574 -5703,-7682 -10504,-7682l-140493 0c-15380,0 -31006,2702 -46314,7982 -51203,17691 -87010,61390 -87010,106309 0,63545 49138,111730 114873,113249 -1273,5049 -1926,10010 -1926,14883 0,9784 2489,19070 7593,28022 -619,35 -1166,35 -1836,35 -62628,0 -119183,30793 -140634,76629 -5614,11901 -8441,23961 -8441,35844 0,11583 2968,22705 8758,33175 13525,24171 42482,42942 81627,52829zm12517 -356396l0 0c-3037,-23290 1820,-44193 13419,-57418 7488,-8564 17269,-13068 28251,-13068l1272 37c31041,901 60721,35561 66211,77246 3071,23359 -2102,45291 -13826,58709 -7485,8562 -17143,13066 -28585,13066 0,0 0,0 -35,0l-478 0c-30421,-901 -60771,-36937 -66229,-78572zm59698 193144l0 0 1270 35c10418,106 20553,1660 30140,4591 3284,2243 6446,4414 9518,6497 22139,15132 36761,25126 40856,41159 935,4007 1414,8051 1414,11952 0,41212 -30688,62116 -91215,62116 -45907,0 -81802,-28198 -81802,-64200 18,-33105 41988,-62150 89819,-62150z"/><path class="fil1" d="M553996 504600l22759 0c6109,0 11035,-4945 11035,-11054l0 -80019 79860 0c6074,0 11035,-4980 11035,-11088l0 -22777c0,-6109 -4961,-11088 -11035,-11088l-79860 0 0 -80020c0,-6072 -4926,-11051 -11035,-11051l-22759 0c-6111,0 -11072,4979 -11072,11051l0 80020 -79859 0c-6075,0 -11035,4979 -11035,11088l0 22777c0,6108 4960,11088 11035,11088l79859 0 0 80019c19,6109 4980,11054 11072,11054z"/><path class="fil1" d="M239393 643980c20199,5155 41934,7769 64480,7769 20271,0 39586,-2668 57455,-7841 55689,-16171 91690,-57240 91690,-104683 0,-45501 -14585,-72728 -53764,-100501 -16791,-11920 -32083,-29364 -32346,-34766 0,-9783 864,-14444 22759,-31553 28303,-22176 43893,-51381 43893,-82225 0,-27950 -8511,-52794 -23077,-70238l11284 0c2347,0 4624,-723 6479,-2065l31412 -22796c3901,-2806 5543,-7803 4042,-12376 -1465,-4574 -5703,-7682 -10504,-7682l-140493 0c-15380,0 -31006,2702 -46314,7982 -51203,17691 -87010,61390 -87010,106309 0,63545 49138,111730 114873,113249 -1273,5049 -1926,10010 -1926,14883 0,9784 2489,19070 7593,28022 -619,35 -1166,35 -1836,35 -62628,0 -119183,30793 -140634,76629 -5614,11901 -8441,23961 -8441,35844 0,11583 2968,22705 8758,33175 13525,24171 42482,42942 81627,52829zm12517 -356396l0 0c-3037,-23290 1820,-44193 13419,-57418 7488,-8564 17269,-13068 28251,-13068l1272 37c31041,901 60721,35561 66211,77246 3071,23359 -2102,45291 -13826,58709 -7485,8562 -17143,13066 -28585,13066 0,0 0,0 -35,0l-478 0c-30421,-901 -60771,-36937 -66229,-78572zm59698 193144l0 0 1270 35c10418,106 20553,1660 30140,4591 3284,2243 6446,4414 9518,6497 22139,15132 36761,25126 40856,41159 935,4007 1414,8051 1414,11952 0,41212 -30688,62116 -91215,62116 -45907,0 -81802,-28198 -81802,-64200 18,-33105 41988,-62150 89819,-62150z"/><path class="fil1" d="M553996 504600l22759 0c6109,0 11035,-4945 11035,-11054l0 -80019 79860 0c6074,0 11035,-4980 11035,-11088l0 -22777c0,-6109 -4961,-11088 -11035,-11088l-79860 0 0 -80020c0,-6072 -4926,-11051 -11035,-11051l-22759 0c-6111,0 -11072,4979 -11072,11051l0 80020 -79859 0c-6075,0 -11035,4979 -11035,11088l0 22777c0,6108 4960,11088 11035,11088l79859 0 0 80019c19,6109 4980,11054 11072,11054z"/><path class="fil1" d="M239393 643980c20199,5155 41934,7769 64480,7769 20271,0 39586,-2668 57455,-7841 55689,-16171 91690,-57240 91690,-104683 0,-45501 -14585,-72728 -53764,-100501 -16791,-11920 -32083,-29364 -32346,-34766 0,-9783 864,-14444 22759,-31553 28303,-22176 43893,-51381 43893,-82225 0,-27950 -8511,-52794 -23077,-70238l11284 0c2347,0 4624,-723 6479,-2065l31412 -22796c3901,-2806 5543,-7803 4042,-12376 -1465,-4574 -5703,-7682 -10504,-7682l-140493 0c-15380,0 -31006,2702 -46314,7982 -51203,17691 -87010,61390 -87010,106309 0,63545 49138,111730 114873,113249 -1273,5049 -1926,10010 -1926,14883 0,9784 2489,19070 7593,28022 -619,35 -1166,35 -1836,35 -62628,0 -119183,30793 -140634,76629 -5614,11901 -8441,23961 -8441,35844 0,11583 2968,22705 8758,33175 13525,24171 42482,42942 81627,52829zm12517 -356396l0 0c-3037,-23290 1820,-44193 13419,-57418 7488,-8564 17269,-13068 28251,-13068l1272 37c31041,901 60721,35561 66211,77246 3071,23359 -2102,45291 -13826,58709 -7485,8562 -17143,13066 -28585,13066 0,0 0,0 -35,0l-478 0c-30421,-901 -60771,-36937 -66229,-78572zm59698 193144l0 0 1270 35c10418,106 20553,1660 30140,4591 3284,2243 6446,4414 9518,6497 22139,15132 36761,25126 40856,41159 935,4007 1414,8051 1414,11952 0,41212 -30688,62116 -91215,62116 -45907,0 -81802,-28198 -81802,-64200 18,-33105 41988,-62150 89819,-62150z"/></g><g id="_2016201959456"><path class="fil2" d="M553996 504600l22759 0c6109,0 11035,-4945 11035,-11054l0 -80019 79860 0c6074,0 11035,-4980 11035,-11088l0 -22777c0,-6109 -4961,-11088 -11035,-11088l-79860 0 0 -80020c0,-6072 -4926,-11051 -11035,-11051l-22759 0c-6111,0 -11072,4979 -11072,11051l0 80020 -79859 0c-6075,0 -11035,4979 -11035,11088l0 22777c0,6108 4960,11088 11035,11088l79859 0 0 80019c19,6109 4980,11054 11072,11054z"/><path class="fil2" d="M239393 643980c20199,5155 41934,7769 64480,7769 20271,0 39586,-2668 57455,-7841 55689,-16171 91690,-57240 91690,-104683 0,-45501 -14585,-72728 -53764,-100501 -16791,-11920 -32083,-29364 -32346,-34766 0,-9783 864,-14444 22759,-31553 28303,-22176 43893,-51381 43893,-82225 0,-27950 -8511,-52794 -23077,-70238l11284 0c2347,0 4624,-723 6479,-2065l31412 -22796c3901,-2806 5543,-7803 4042,-12376 -1465,-4574 -5703,-7682 -10504,-7682l-140493 0c-15380,0 -31006,2702 -46314,7982 -51203,17691 -87010,61390 -87010,106309 0,63545 49138,111730 114873,113249 -1273,5049 -1926,10010 -1926,14883 0,9784 2489,19070 7593,28022 -619,35 -1166,35 -1836,35 -62628,0 -119183,30793 -140634,76629 -5614,11901 -8441,23961 -8441,35844 0,11583 2968,22705 8758,33175 13525,24171 42482,42942 81627,52829zm12517 -356396l0 0c-3037,-23290 1820,-44193 13419,-57418 7488,-8564 17269,-13068 28251,-13068l1272 37c31041,901 60721,35561 66211,77246 3071,23359 -2102,45291 -13826,58709 -7485,8562 -17143,13066 -28585,13066 0,0 0,0 -35,0l-478 0c-30421,-901 -60771,-36937 -66229,-78572zm59698 193144l0 0 1270 35c10418,106 20553,1660 30140,4591 3284,2243 6446,4414 9518,6497 22139,15132 36761,25126 40856,41159 935,4007 1414,8051 1414,11952 0,41212 -30688,62116 -91215,62116 -45907,0 -81802,-28198 -81802,-64200 18,-33105 41988,-62150 89819,-62150z"/><path class="fil2" d="M553996 504600l22759 0c6109,0 11035,-4945 11035,-11054l0 -80019 79860 0c6074,0 11035,-4980 11035,-11088l0 -22777c0,-6109 -4961,-11088 -11035,-11088l-79860 0 0 -80020c0,-6072 -4926,-11051 -11035,-11051l-22759 0c-6111,0 -11072,4979 -11072,11051l0 80020 -79859 0c-6075,0 -11035,4979 -11035,11088l0 22777c0,6108 4960,11088 11035,11088l79859 0 0 80019c19,6109 4980,11054 11072,11054z"/><path class="fil2" d="M239393 643980c20199,5155 41934,7769 64480,7769 20271,0 39586,-2668 57455,-7841 55689,-16171 91690,-57240 91690,-104683 0,-45501 -14585,-72728 -53764,-100501 -16791,-11920 -32083,-29364 -32346,-34766 0,-9783 864,-14444 22759,-31553 28303,-22176 43893,-51381 43893,-82225 0,-27950 -8511,-52794 -23077,-70238l11284 0c2347,0 4624,-723 6479,-2065l31412 -22796c3901,-2806 5543,-7803 4042,-12376 -1465,-4574 -5703,-7682 -10504,-7682l-140493 0c-15380,0 -31006,2702 -46314,7982 -51203,17691 -87010,61390 -87010,106309 0,63545 49138,111730 114873,113249 -1273,5049 -1926,10010 -1926,14883 0,9784 2489,19070 7593,28022 -619,35 -1166,35 -1836,35 -62628,0 -119183,30793 -140634,76629 -5614,11901 -8441,23961 -8441,35844 0,11583 2968,22705 8758,33175 13525,24171 42482,42942 81627,52829zm12517 -356396l0 0c-3037,-23290 1820,-44193 13419,-57418 7488,-8564 17269,-13068 28251,-13068l1272 37c31041,901 60721,35561 66211,77246 3071,23359 -2102,45291 -13826,58709 -7485,8562 -17143,13066 -28585,13066 0,0 0,0 -35,0l-478 0c-30421,-901 -60771,-36937 -66229,-78572zm59698 193144l0 0 1270 35c10418,106 20553,1660 30140,4591 3284,2243 6446,4414 9518,6497 22139,15132 36761,25126 40856,41159 935,4007 1414,8051 1414,11952 0,41212 -30688,62116 -91215,62116 -45907,0 -81802,-28198 -81802,-64200 18,-33105 41988,-62150 89819,-62150z"/><path class="fil2" d="M553996 504600l22759 0c6109,0 11035,-4945 11035,-11054l0 -80019 79860 0c6074,0 11035,-4980 11035,-11088l0 -22777c0,-6109 -4961,-11088 -11035,-11088l-79860 0 0 -80020c0,-6072 -4926,-11051 -11035,-11051l-22759 0c-6111,0 -11072,4979 -11072,11051l0 80020 -79859 0c-6075,0 -11035,4979 -11035,11088l0 22777c0,6108 4960,11088 11035,11088l79859 0 0 80019c19,6109 4980,11054 11072,11054z"/><path class="fil2" d="M239393 643980c20199,5155 41934,7769 64480,7769 20271,0 39586,-2668 57455,-7841 55689,-16171 91690,-57240 91690,-104683 0,-45501 -14585,-72728 -53764,-100501 -16791,-11920 -32083,-29364 -32346,-34766 0,-9783 864,-14444 22759,-31553 28303,-22176 43893,-51381 43893,-82225 0,-27950 -8511,-52794 -23077,-70238l11284 0c2347,0 4624,-723 6479,-2065l31412 -22796c3901,-2806 5543,-7803 4042,-12376 -1465,-4574 -5703,-7682 -10504,-7682l-140493 0c-15380,0 -31006,2702 -46314,7982 -51203,17691 -87010,61390 -87010,106309 0,63545 49138,111730 114873,113249 -1273,5049 -1926,10010 -1926,14883 0,9784 2489,19070 7593,28022 -619,35 -1166,35 -1836,35 -62628,0 -119183,30793 -140634,76629 -5614,11901 -8441,23961 -8441,35844 0,11583 2968,22705 8758,33175 13525,24171 42482,42942 81627,52829zm12517 -356396l0 0c-3037,-23290 1820,-44193 13419,-57418 7488,-8564 17269,-13068 28251,-13068l1272 37c31041,901 60721,35561 66211,77246 3071,23359 -2102,45291 -13826,58709 -7485,8562 -17143,13066 -28585,13066 0,0 0,0 -35,0l-478 0c-30421,-901 -60771,-36937 -66229,-78572zm59698 193144l0 0 1270 35c10418,106 20553,1660 30140,4591 3284,2243 6446,4414 9518,6497 22139,15132 36761,25126 40856,41159 935,4007 1414,8051 1414,11952 0,41212 -30688,62116 -91215,62116 -45907,0 -81802,-28198 -81802,-64200 18,-33105 41988,-62150 89819,-62150z"/></g><g id="_2016201960704"><path class="fil1" d="M542007 504600l22759 0c6108,0 11035,-4945 11035,-11054l0 -80019 79860 0c6074,0 11035,-4980 11035,-11088l0 -22777c0,-6109 -4961,-11088 -11035,-11088l-79860 0 0 -80020c0,-6072 -4927,-11051 -11035,-11051l-22759 0c-6111,0 -11072,4979 -11072,11051l0 80020 -79860 0c-6074,0 -11035,4979 -11035,11088l0 22777c0,6108 4961,11088 11035,11088l79860 0 0 80019c19,6109 4980,11054 11072,11054z"/><path class="fil1" d="M227403 643980c20200,5155 41935,7769 64481,7769 20271,0 39586,-2668 57455,-7841 55688,-16171 91689,-57240 91689,-104683 0,-45501 -14584,-72728 -53764,-100501 -16790,-11920 -32082,-29364 -32345,-34766 0,-9783 864,-14444 22758,-31553 28304,-22176 43893,-51381 43893,-82225 0,-27950 -8510,-52794 -23077,-70238l11285 0c2346,0 4624,-723 6478,-2065l31413 -22796c3900,-2806 5542,-7803 4041,-12376 -1464,-4574 -5702,-7682 -10504,-7682l-140493 0c-15379,0 -31006,2702 -46313,7982 -51203,17691 -87011,61390 -87011,106309 0,63545 49139,111730 114873,113249 -1272,5049 -1926,10010 -1926,14883 0,9784 2490,19070 7594,28022 -619,35 -1167,35 -1836,35 -62629,0 -119183,30793 -140634,76629 -5615,11901 -8441,23961 -8441,35844 0,11583 2967,22705 8757,33175 13525,24171 42482,42942 81627,52829zm12518 -356396l0 0c-3037,-23290 1820,-44193 13419,-57418 7487,-8564 17268,-13068 28250,-13068l1273 37c31040,901 60720,35561 66210,77246 3072,23359 -2101,45291 -13825,58709 -7485,8562 -17144,13066 -28585,13066 0,0 0,0 -35,0l-478 0c-30422,-901 -60772,-36937 -66229,-78572zm59698 193144l0 0 1270 35c10418,106 20553,1660 30140,4591 3284,2243 6446,4414 9517,6497 22140,15132 36761,25126 40856,41159 936,4007 1414,8051 1414,11952 0,41212 -30687,62116 -91214,62116 -45907,0 -81802,-28198 -81802,-64200 18,-33105 41987,-62150 89819,-62150z"/><path class="fil1" d="M542007 504600l22759 0c6108,0 11035,-4945 11035,-11054l0 -80019 79860 0c6074,0 11035,-4980 11035,-11088l0 -22777c0,-6109 -4961,-11088 -11035,-11088l-79860 0 0 -80020c0,-6072 -4927,-11051 -11035,-11051l-22759 0c-6111,0 -11072,4979 -11072,11051l0 80020 -79860 0c-6074,0 -11035,4979 -11035,11088l0 22777c0,6108 4961,11088 11035,11088l79860 0 0 80019c19,6109 4980,11054 11072,11054z"/><path class="fil1" d="M227403 643980c20200,5155 41935,7769 64481,7769 20271,0 39586,-2668 57455,-7841 55688,-16171 91689,-57240 91689,-104683 0,-45501 -14584,-72728 -53764,-100501 -16790,-11920 -32082,-29364 -32345,-34766 0,-9783 864,-14444 22758,-31553 28304,-22176 43893,-51381 43893,-82225 0,-27950 -8510,-52794 -23077,-70238l11285 0c2346,0 4624,-723 6478,-2065l31413 -22796c3900,-2806 5542,-7803 4041,-12376 -1464,-4574 -5702,-7682 -10504,-7682l-140493 0c-15379,0 -31006,2702 -46313,7982 -51203,17691 -87011,61390 -87011,106309 0,63545 49139,111730 114873,113249 -1272,5049 -1926,10010 -1926,14883 0,9784 2490,19070 7594,28022 -619,35 -1167,35 -1836,35 -62629,0 -119183,30793 -140634,76629 -5615,11901 -8441,23961 -8441,35844 0,11583 2967,22705 8757,33175 13525,24171 42482,42942 81627,52829zm12518 -356396l0 0c-3037,-23290 1820,-44193 13419,-57418 7487,-8564 17268,-13068 28250,-13068l1273 37c31040,901 60720,35561 66210,77246 3072,23359 -2101,45291 -13825,58709 -7485,8562 -17144,13066 -28585,13066 0,0 0,0 -35,0l-478 0c-30422,-901 -60772,-36937 -66229,-78572zm59698 193144l0 0 1270 35c10418,106 20553,1660 30140,4591 3284,2243 6446,4414 9517,6497 22140,15132 36761,25126 40856,41159 936,4007 1414,8051 1414,11952 0,41212 -30687,62116 -91214,62116 -45907,0 -81802,-28198 -81802,-64200 18,-33105 41987,-62150 89819,-62150z"/><path class="fil1" d="M542007 504600l22759 0c6108,0 11035,-4945 11035,-11054l0 -80019 79860 0c6074,0 11035,-4980 11035,-11088l0 -22777c0,-6109 -4961,-11088 -11035,-11088l-79860 0 0 -80020c0,-6072 -4927,-11051 -11035,-11051l-22759 0c-6111,0 -11072,4979 -11072,11051l0 80020 -79860 0c-6074,0 -11035,4979 -11035,11088l0 22777c0,6108 4961,11088 11035,11088l79860 0 0 80019c19,6109 4980,11054 11072,11054z"/><path class="fil1" d="M227403 643980c20200,5155 41935,7769 64481,7769 20271,0 39586,-2668 57455,-7841 55688,-16171 91689,-57240 91689,-104683 0,-45501 -14584,-72728 -53764,-100501 -16790,-11920 -32082,-29364 -32345,-34766 0,-9783 864,-14444 22758,-31553 28304,-22176 43893,-51381 43893,-82225 0,-27950 -8510,-52794 -23077,-70238l11285 0c2346,0 4624,-723 6478,-2065l31413 -22796c3900,-2806 5542,-7803 4041,-12376 -1464,-4574 -5702,-7682 -10504,-7682l-140493 0c-15379,0 -31006,2702 -46313,7982 -51203,17691 -87011,61390 -87011,106309 0,63545 49139,111730 114873,113249 -1272,5049 -1926,10010 -1926,14883 0,9784 2490,19070 7594,28022 -619,35 -1167,35 -1836,35 -62629,0 -119183,30793 -140634,76629 -5615,11901 -8441,23961 -8441,35844 0,11583 2967,22705 8757,33175 13525,24171 42482,42942 81627,52829zm12518 -356396l0 0c-3037,-23290 1820,-44193 13419,-57418 7487,-8564 17268,-13068 28250,-13068l1273 37c31040,901 60720,35561 66210,77246 3072,23359 -2101,45291 -13825,58709 -7485,8562 -17144,13066 -28585,13066 0,0 0,0 -35,0l-478 0c-30422,-901 -60772,-36937 -66229,-78572zm59698 193144l0 0 1270 35c10418,106 20553,1660 30140,4591 3284,2243 6446,4414 9517,6497 22140,15132 36761,25126 40856,41159 936,4007 1414,8051 1414,11952 0,41212 -30687,62116 -91214,62116 -45907,0 -81802,-28198 -81802,-64200 18,-33105 41987,-62150 89819,-62150z"/></g></g></svg>